<?xml version="1.0" encoding="UTF-8"?>
<svg id="Layer_1" data-name="Layer 1" xmlns="http://www.w3.org/2000/svg" viewBox="0 0 1672 1052.06">
  <defs>
    <style>
      .cls-1 {
        fill: #000;
      }

      .cls-1, .cls-2 {
        stroke-width: 0px;
      }

      .cls-2 {
        fill: #fff;
      }
    </style>
  </defs>
  <path class="cls-1" d="M739.41,221.15c-11.11-5.97-25.62-8.95-43.55-8.95l-7.68-2.56h-160.13c-3.42,8.53-5.76,17.92-7.05,28.17-1.28,10.25-2.78,21.78-4.48,34.59l-16.66,116.57,1.28,11.53h81.99c16.22,1.72,30.31.86,42.26-2.57h15.38l11.53-2.56c17.08-22.19,28.61-48.67,34.59-79.42,18.79-17.92,41.83-26.89,69.18-26.89,0-26.47-5.57-49.11-16.66-67.91ZM658.71,300.57c-5.99,29.05-14.1,51.69-24.35,67.91h-12.79c-7.69,2.56-14.53,3.84-20.5,3.84l5.12-30.75c.85-3.4,1.28-6.4,1.28-8.96s.42-5.55,1.28-8.97c.85-4.27,1.29-8.11,1.29-11.53,0-4.27.42-8.54,1.28-12.82h48.67l-1.28,1.28ZM717.63,266l-23.05-24.35c11.1,0,18.77.86,23.05,2.57,1.7,3.42,2.98,6.62,3.84,9.6.85,3,1.71,6.63,2.57,10.9-1.72.85-3.85,1.28-6.41,1.28ZM739.41,221.15c-11.11-5.97-25.62-8.95-43.55-8.95l-7.68-2.56h-160.13c-3.42,8.53-5.76,17.92-7.05,28.17-1.28,10.25-2.78,21.78-4.48,34.59l-16.66,116.57,1.28,11.53h81.99c16.22,1.72,30.31.86,42.26-2.57h15.38l11.53-2.56c17.08-22.19,28.61-48.67,34.59-79.42,18.79-17.92,41.83-26.89,69.18-26.89,0-26.47-5.57-49.11-16.66-67.91ZM658.71,300.57c-5.99,29.05-14.1,51.69-24.35,67.91h-12.79c-7.69,2.56-14.53,3.84-20.5,3.84l5.12-30.75c.85-3.4,1.28-6.4,1.28-8.96s.42-5.55,1.28-8.97c.85-4.27,1.29-8.11,1.29-11.53,0-4.27.42-8.54,1.28-12.82h48.67l-1.28,1.28ZM717.63,266l-23.05-24.35c11.1,0,18.77.86,23.05,2.57,1.7,3.42,2.98,6.62,3.84,9.6.85,3,1.71,6.63,2.57,10.9-1.72.85-3.85,1.28-6.41,1.28ZM964.86,123.81l-40.98-41c-11.11-19.63-26.49-34.58-46.13-44.83l-26.89-3.84H337.18c-67.47,1.72-124.91,18.37-172.3,49.97-47.41,31.59-84.77,76.86-112.08,135.76l-2.56,5.13c-3.42,14.53-5.99,28.4-7.69,41.64-1.72,13.25-2.56,26.68-2.56,40.34,0,52.09,15.8,86.27,47.39,102.49l47.41,46.12c16.21,16.22,39.26,24.33,69.17,24.33,6.83,0,14.51-.85,23.04-2.56,8.54-1.71,17.94-3.41,28.19-5.13l-40.98,293.36c-70.89,4.28-106.33,46.55-106.33,126.81,5.12,17.94,18.36,36.3,39.7,55.08h3.85l49.96,49.97c1.71,1.72,3.63,3.42,5.77,5.12,2.13,1.72,4.05,3.43,5.77,5.13h301.03c1.7,0,3.84.22,6.4.64,2.57.44,4.69.64,6.41.64,30.73,0,53.8-8.97,69.17-26.91,15.38-17.93,23.91-44.4,25.63-79.42-2.57-17.08-9.41-31.17-20.5-42.28l-47.41-46.11c-1.72-2.56-3.42-5.12-5.12-7.69-1.72-2.56-3.85-5.12-6.41-7.68l21.78-158.85h49.97c5.12,14.53,14.94,28.19,29.45,41,3.41,1.72,5.97,2.57,7.69,2.57l57.64,57.64c9.39,3.42,18.14,5.56,26.27,6.4,8.11.86,16.01,1.28,23.7,1.28,6.83,0,14.3-.42,22.41-1.28,8.1-.84,16.85-2.98,26.26-6.4,1.7-1.71,3.63-3.85,5.77-6.41,2.12-2.56,4.04-4.69,5.76-6.41h1.28l1.28-2.56c.85,0,1.71-.84,2.57-2.56,3.4-4.27,7.04-8.97,10.89-14.09,3.84-5.13,7.89-11.1,12.17-17.93l37.14-270.29c19.64-3.41,40.98-13.24,64.05-29.47.84-1.71,1.92-3.63,3.2-5.77,1.28-2.12,2.34-4.04,3.2-5.76,1.71-1.71,2.77-4.05,3.21-7.03.42-2.99,1.06-5.33,1.92-7.05v-2.56l26.9-210.1c-6.84-11.09-14.09-20.92-21.78-29.45ZM870.07,299.29c-.86,1.72-1.93,3.43-3.21,5.13-1.28,1.72-2.36,3.84-3.2,6.4-17.94,12.82-40.14,20.08-66.61,21.79l-39.7,288.21c-3.42,5.99-7.49,11.54-12.17,16.66-4.71,5.13-9.61,10.69-14.74,16.66-23.06,6.84-47.39,6.84-73.01,0-7.69-7.69-12.82-15.8-15.38-24.35.84-17.06-1.28-39.26-6.41-66.61l-1.28-5.12c-27.32-5.97-59.34-8.53-96.06-7.69h-52.53l-8.97,2.56-30.73,236.99c52.09,3.42,80.7,20.5,85.82,51.25-2.56,56.37-29.89,81.98-81.98,76.86H157.83c-9.4-8.53-16.23-18.78-20.48-30.75,0-63.19,30.31-93.94,90.94-92.24l11.53-7.68,3.84-16.64,78.14-552.13-2.56-16.64c-23.91-3.41-50.81,1.28-80.7,14.09,27.32,64.91,8.96,120.83-55.08,167.8-99.07,25.63-133.66-25.19-103.77-152.44C128.36,122.95,214.61,67.01,338.46,63.59h509.84l20.49,2.56c10.25,5.13,19.21,14.96,26.9,29.47l-25.62,203.67ZM695.86,212.2l-7.68-2.56h-160.13c-3.42,8.53-5.76,17.92-7.05,28.17-1.28,10.25-2.78,21.78-4.48,34.59l-16.66,116.57,1.28,11.53h81.99c16.22,1.72,30.31.86,42.26-2.57h15.38l11.53-2.56c17.08-22.19,28.61-48.67,34.59-79.42,18.79-17.92,41.83-26.89,69.18-26.89,0-26.47-5.57-49.11-16.66-67.91-11.11-5.97-25.62-8.95-43.55-8.95ZM658.71,300.57c-5.99,29.05-14.1,51.69-24.35,67.91h-12.79c-7.69,2.56-14.53,3.84-20.5,3.84l5.12-30.75c.85-3.4,1.28-6.4,1.28-8.96s.42-5.55,1.28-8.97c.85-4.27,1.29-8.11,1.29-11.53,0-4.27.42-8.54,1.28-12.82h48.67l-1.28,1.28ZM717.63,266l-23.05-24.35c11.1,0,18.77.86,23.05,2.57,1.7,3.42,2.98,6.62,3.84,9.6.85,3,1.71,6.63,2.57,10.9-1.72.85-3.85,1.28-6.41,1.28Z"/>
  <path class="cls-2" d="M868.8,66.15l-20.49-2.56h-509.84c-123.85,3.42-210.1,59.36-258.77,167.81-29.89,127.25,4.7,178.07,103.77,152.44,64.04-46.97,82.4-102.89,55.08-167.8,29.89-12.81,56.79-17.5,80.7-14.09l2.56,16.64-78.14,552.13-3.84,16.64-11.53,7.68c-60.63-1.7-90.94,29.05-90.94,92.24,4.25,11.97,11.08,22.22,20.48,30.75h292.08c52.09,5.12,79.42-20.49,81.98-76.86-5.12-30.75-33.73-47.83-85.82-51.25l30.73-236.99,8.97-2.56h52.53c36.72-.84,68.74,1.72,96.06,7.69l1.28,5.12c5.13,27.35,7.25,49.55,6.41,66.61,2.56,8.55,7.69,16.66,15.38,24.35,25.62,6.84,49.95,6.84,73.01,0,5.13-5.97,10.03-11.53,14.74-16.66,4.68-5.12,8.75-10.67,12.17-16.66l39.7-288.21c26.47-1.71,48.67-8.97,66.61-21.79.84-2.56,1.92-4.68,3.2-6.4,1.28-1.7,2.35-3.41,3.21-5.13l25.62-203.67c-7.69-14.51-16.65-24.34-26.9-29.47ZM686.89,315.95c-5.98,30.75-17.51,57.23-34.59,79.42l-11.53,2.56h-15.38c-11.95,3.43-26.04,4.29-42.26,2.57h-81.99l-1.28-11.53,16.66-116.57c1.7-12.81,3.2-24.34,4.48-34.59,1.29-10.25,3.63-19.64,7.05-28.17h160.13l7.68,2.56c17.93,0,32.44,2.98,43.55,8.95,11.09,18.8,16.66,41.44,16.66,67.91-27.35,0-50.39,8.97-69.18,26.89Z"/>
  <path class="cls-1" d="M1622.39,125.73c-2.98-5.55-7.03-11.73-12.15-18.58l-49.97-48.68c-1.72-2.55-3.42-5.32-5.13-8.32-1.72-2.98-4.28-6.61-7.68-10.89-21.35-9.39-40.15-14.09-56.36-14.09-23.91,0-46.97,9.83-69.18,29.47-43.56-18.78-88.81-28.19-135.78-28.19-7.68,0-14.95.22-21.78.64-6.84.44-13.67,1.08-20.5,1.92-113.59,26.47-190.01,91.38-229.3,194.71v1.28c-6.84,20.5-11.75,40.15-14.73,58.93-3,18.79-4.48,37.58-4.48,56.36,0,44.41,9.39,84.97,28.18,121.69l26.91,34.59c11.94,15.38,23.05,26.91,33.3,34.6l7.68,7.67c2.57,2.56,5.77,5.56,9.61,8.97,3.85,3.42,7.47,6.41,10.89,8.97l25.63,24.34c1.7,1.72,3.83,3.64,6.39,5.77,2.56,2.14,4.69,4.06,6.41,5.76l7.68,7.69c4.27,3.42,8.53,6.84,12.82,10.25,4.26,3.42,7.68,5.98,10.25,7.67l2.56,1.28,83.26,61.5c3.41,7.69,5.13,15.8,5.13,24.33s-2.14,18.38-6.41,29.47c-5.98,9.41-12.39,16.23-19.22,20.5-7.68,1.72-14.95,3-21.78,3.84-6.83.86-12.79,1.29-17.92,1.29-14.53,0-26.48-2.13-35.87-6.41-8.55-22.2-14.54-47.83-17.94-76.86-5.13-10.25-11.53-19.22-19.2-26.91l-43.57-42.26c-9.4-16.22-23.48-30.31-42.26-42.28h-2.57c-3.42-.85-6.84-1.49-10.25-1.93-3.42-.42-8.54-.64-15.37-.64-35.88,0-67.47,14.96-94.8,44.85l-8.97,61.48v19.22c0,.86-.21,1.5-.64,1.92-.43.44-.64,1.08-.64,1.92v3.83c0,1.72-.22,3-.64,3.85-.44.86-.64,2.14-.64,3.84v14.09c0,2.57.42,5.57,1.28,8.97v6.41l1.28,46.11c-.86,4.28-1.28,8.12-1.28,11.53v20.5c0,4.28.42,8.55,1.28,12.81v32.02c-.86,5.12-1.28,10.25-1.28,15.37v30.75c0,5.13.42,9.41,1.28,12.82l26.91,38.42c3.41,1.72,5.97,2.56,7.69,2.56l57.64,57.66c18.78,5.96,35.01,8.95,48.69,8.95,27.31,0,52.51-8.95,75.57-26.89,52.1,20.5,101.63,30.73,148.6,30.73,114.44,0,209.22-61.9,284.37-185.73,19.64-50.38,29.47-98.2,29.47-143.49,0-72.57-25.2-134.06-75.58-184.45l-32.03-30.75-3.84-3.84c6.83,3.42,14.09,6.4,21.78,8.97,2.56,0,5.55.21,8.97.64,3.4.43,5.97.64,7.69.64,30.73,0,58.92-11.96,84.54-35.86,4.27-10.25,7.69-20.92,10.25-32.03,2.57-11.1,4.69-22.63,6.39-34.6l-1.28-8.97c2.56-8.53,3.85-19.2,3.85-32.01,0-4.27-.22-7.89-.64-10.89-.44-2.99-.65-5.33-.65-7.05.85-6.83,1.49-13.01,1.93-18.58.42-5.54.64-11.73.64-18.56l2.56-41-1.28-5.12,2.56-15.38-1.28-15.36v-15.37c.84-6.83,1.48-13.02,1.92-18.58.42-5.55.64-11.74.64-18.58v-17.94c-3.42-5.97-6.62-11.72-9.61-17.28ZM1541.07,163.51l-2.56,16.66,1.28,7.69-2.56,38.42c0,11.11-1.28,23.5-3.84,37.15,1.7,6.85,2.34,13.89,1.92,21.14-.44,7.27-1.5,15.6-3.2,24.97l1.28,12.82c-.86,8.54-2.36,17.09-4.49,25.62-2.14,8.55-4.92,17.09-8.33,25.63-22.21,19.64-47.4,27.75-75.57,24.32-4.28-1.7-9.19-4.26-14.74-7.68-5.56-3.41-10.89-7.25-16.01-11.53-17.94-144.32-76.88-198.13-176.78-161.41-46.13,55.51-4.27,120.42,125.54,194.72,137.49,78.58,175.49,197.72,114,357.4-99.92,163.13-238.26,207.1-415.04,131.94-29.9,30.75-64.05,39.72-102.47,26.91l-14.1-20.5c-1.72-12.81-1.72-29.03,0-48.69v-38.42c-.86-16.22-.86-29.47,0-39.72l-1.28-46.11,1.28-10.25c-1.72-4.27-2.36-9.61-1.92-16.02.42-6.4,1.06-13.01,1.92-19.84v-15.37l7.69-51.25c23.05-24.75,52.08-33.72,87.11-26.89,9.39,5.12,17.08,13.23,23.05,24.32,20.5,136.66,85.4,191.32,194.72,163.97,5.96-4.26,11.95-9.59,17.93-16,5.97-6.4,11.96-13.87,17.94-22.42,10.23-27.33,9.81-54.23-1.28-80.7-4.28-5.97-9.61-12.38-16.02-19.22-6.4-6.83-14.31-13.66-23.7-20.5l-15.37-14.08-5.13-5.12-97.34-70.46c-2.57-1.7-5.99-4.04-10.25-7.04-4.28-2.99-8.97-6.61-14.1-10.9l-8.97-8.96c-9.4-6.83-18.79-16.66-28.18-29.47l-23.05-29.46c-32.47-59.78-35.03-131.51-7.69-215.21,35.86-93.08,103.75-151.58,203.67-175.5,64.05-7.68,124.69,3,181.91,32.03,26.47-35.86,60.2-44.83,101.2-26.91,2.57,3.42,4.91,6.84,7.05,10.25,2.13,3.42,4.05,7.27,5.75,11.53.84,11.11,0,27.35-2.55,48.69v17.92l1.28,11.53ZM1311.76,345.42c-1.72-8.53-2.56-14.94-2.56-19.22,0-7.69,2.56-15.38,7.69-23.06,15.37-5.11,29.03-7.67,41-7.67h5.12c10.25,24.76,17.92,56.78,23.05,96.06-4.27-.85-7.25-2.56-8.95-5.13-12.82-6.83-24.57-13.65-35.24-20.48-10.69-6.83-20.72-13.66-30.11-20.5ZM1341.22,383.84c-3.42-2.56-6.41-5.55-8.97-8.95l8.97,8.95Z"/>
  <path class="cls-2" d="M1541.07,163.51l-2.56,16.66,1.28,7.69-2.56,38.42c0,11.11-1.28,23.5-3.84,37.15,1.7,6.85,2.34,13.89,1.92,21.14-.44,7.27-1.5,15.6-3.2,24.97l1.28,12.82c-.86,8.54-2.36,17.09-4.49,25.62-2.14,8.55-4.92,17.09-8.33,25.63-22.21,19.64-47.4,27.75-75.57,24.32-4.28-1.7-9.19-4.26-14.74-7.68-5.56-3.41-10.89-7.25-16.01-11.53-17.94-144.32-76.88-198.13-176.78-161.41-46.13,55.51-4.27,120.42,125.54,194.72,137.49,78.58,175.49,197.72,114,357.4-99.92,163.13-238.26,207.1-415.04,131.94-29.9,30.75-64.05,39.72-102.47,26.91l-14.1-20.5c-1.72-12.81-1.72-29.03,0-48.69v-38.42c-.86-16.22-.86-29.47,0-39.72l-1.28-46.11,1.28-10.25c-1.72-4.27-2.36-9.61-1.92-16.02.42-6.4,1.06-13.01,1.92-19.84v-15.37l7.69-51.25c23.05-24.75,52.08-33.72,87.11-26.89,9.39,5.12,17.08,13.23,23.05,24.32,20.5,136.66,85.4,191.32,194.72,163.97,5.96-4.26,11.95-9.59,17.93-16,5.97-6.4,11.96-13.87,17.94-22.42,10.23-27.33,9.81-54.23-1.28-80.7-4.28-5.97-9.61-12.38-16.02-19.22-6.4-6.83-14.31-13.66-23.7-20.5l-15.37-14.08-5.13-5.12-97.34-70.46c-2.57-1.7-5.99-4.04-10.25-7.04-4.28-2.99-8.97-6.61-14.1-10.9l-8.97-8.96c-9.4-6.83-18.79-16.66-28.18-29.47l-23.05-29.46c-32.47-59.78-35.03-131.51-7.69-215.21,35.86-93.08,103.75-151.58,203.67-175.5,64.05-7.68,124.69,3,181.91,32.03,26.47-35.86,60.2-44.83,101.2-26.91,2.57,3.42,4.91,6.84,7.05,10.25,2.13,3.42,4.05,7.27,5.75,11.53.84,11.11,0,27.35-2.55,48.69v17.92l1.28,11.53Z"/>
</svg>