<?xml version="1.0" encoding="UTF-8"?>
<svg id="Layer_1" data-name="Layer 1" xmlns="http://www.w3.org/2000/svg" viewBox="0 0 3045.31 591.01">
  <defs>
    <style>
      .cls-1 {
        fill: #000;
      }

      .cls-1, .cls-2 {
        stroke-width: 0px;
      }

      .cls-2 {
        fill: #fff;
      }
    </style>
  </defs>
  <g id="FindSports">
    <path class="cls-1" d="M1820.08,219.7c-5.31-2.85-12.68-4.29-22.08-4.29-7.77,2.86-15.12,7.55-22.07,14.06l-17.17,120.44c7.35,8.97,17.78,13.45,31.27,13.45,3.68-1.22,7.26-2.84,10.74-4.89,3.47-2.03,7.05-4.48,10.73-7.33,31.07-49.31,33.93-93.13,8.58-131.44ZM1809.05,325.46l9.2-59.3c.81-.4,2.04-1.43,3.68-3.05.4,2.04.7,3.97.91,5.8.2,1.84.31,3.77.31,5.81,0,15.08-4.71,32-14.11,50.74h.01ZM1820.08,219.7c-5.31-2.85-12.68-4.29-22.08-4.29-7.77,2.86-15.12,7.55-22.07,14.06l-17.17,120.44c7.35,8.97,17.78,13.45,31.27,13.45,3.68-1.22,7.26-2.84,10.74-4.89,3.47-2.03,7.05-4.48,10.73-7.33,31.07-49.31,33.93-93.13,8.58-131.44ZM1809.05,325.46l9.2-59.3c.81-.4,2.04-1.43,3.68-3.05.4,2.04.7,3.97.91,5.8.2,1.84.31,3.77.31,5.81,0,15.08-4.71,32-14.11,50.74h.01ZM1935.38,179.95l-17.79-17.12c-17.17-25.67-41.69-38.51-73.59-38.51-15.94,0-34.34,3.88-55.19,11.62-8.58-7.34-18.2-11-28.81-11h-5.53c-1.63,0-3.67.4-6.13,1.22-6.55,2.85-10.64,4.88-12.27,6.11l-23.3,7.34c-.42.4-.82.61-1.23.61h-.62c-3.28,2.04-7.15,3.27-11.65,3.67l-33.11,11-11.64,11.01c-5.73,11.82-8.59,22.42-8.59,31.79,0,13.45,5.52,23.23,16.56,29.34l9.81,10.39-31.28,226.21c-27.39,8.15-41.09,25.88-41.09,53.18v6.72c6.53,11,13.29,18.54,20.23,22.62h1.23l22.08,22.01c2.45,2.85,5.31,5.1,8.59,6.72h111c2.45.82,4.91,1.22,7.35,1.22h6.75c22.48,0,38.02-11.42,46.6-34.24,0-1.22.09-2.75.3-4.58.2-1.84.3-3.16.3-3.97,0-12.23-3.28-21.62-9.81-28.13l-23.31-23.23c-.82-.81-1.33-1.62-1.53-2.44-.21-.82-.72-1.63-1.53-2.45l1.84-9.17c3.28.4,6.34.61,9.2.61h9.82c35.97,0,67.46-12.63,94.44-37.91,45.38-50.52,68.06-103.72,68.06-159.56v-6.72c-6.14-38.31-18.2-66.43-36.18-84.38l.02.02ZM1867.3,388.43c-35.16,32.62-74.62,44.02-118.36,34.24l-7.35,50.13,6.74,5.51c24.12-3.67,34.95,6.52,32.5,30.57-7.35,20.37-23.09,28.12-47.21,23.23h-109.16c-3.68-2.05-7.16-6.12-10.43-12.23-1.23-26.49,12.05-41.36,39.86-44.63l35.57-255.54c-28.62-.4-36.39-15.69-23.31-45.85l6.74-6.12,29.44-9.78c2.04-.4,4.19-1.01,6.44-1.84,2.24-.81,4.8-1.83,7.67-3.05l26.37-8.55c1.62-1.63,4.9-3.27,9.81-4.89,13.49-2.45,24.53,1.63,33.11,12.22,80.96-33.01,128.57-5.1,142.89,83.76,1.23,55.02-19.23,105.97-61.33,152.84v-.02ZM1798,215.41c-7.77,2.86-15.12,7.55-22.07,14.06l-17.17,120.44c7.35,8.97,17.78,13.45,31.27,13.45,3.68-1.22,7.26-2.84,10.74-4.89,3.47-2.03,7.05-4.48,10.73-7.33,31.07-49.31,33.93-93.13,8.58-131.44-5.31-2.85-12.68-4.29-22.08-4.29ZM1822.84,268.91c.2,1.84.31,3.77.31,5.81,0,15.08-4.71,32-14.11,50.74l9.2-59.3c.81-.4,2.04-1.43,3.68-3.05.4,2.04.7,3.97.91,5.8h.01Z"/>
    <path class="cls-2" d="M1867.3,388.43c42.1-46.86,62.56-97.81,61.33-152.84-14.32-88.85-61.94-116.77-142.89-83.76-8.58-10.6-19.63-14.67-33.11-12.22-4.91,1.63-8.18,3.27-9.81,4.89l-26.37,8.55c-2.87,1.22-5.43,2.24-7.67,3.05-2.25.83-4.4,1.44-6.44,1.84l-29.44,9.78-6.74,6.12c-13.08,30.16-5.31,45.45,23.31,45.85l-35.57,255.54c-27.81,3.27-41.09,18.14-39.86,44.63,3.27,6.12,6.74,10.18,10.43,12.23h109.16c24.12,4.88,39.86-2.86,47.21-23.23,2.45-24.04-8.38-34.24-32.5-30.57l-6.74-5.51,7.35-50.13c43.74,9.79,83.2-1.62,118.36-34.24v.02ZM1775.93,229.47c6.95-6.51,14.3-11.2,22.07-14.06,9.4,0,16.76,1.44,22.08,4.29,25.35,38.31,22.49,82.13-8.58,131.44-3.68,2.85-7.26,5.3-10.73,7.33-3.48,2.05-7.06,3.67-10.74,4.89-13.49,0-23.92-4.48-31.27-13.45l17.17-120.44Z"/>
    <path class="cls-1" d="M2129.78,211.13c-3.28-1.62-6.54-2.95-9.81-3.97-3.29-1.01-7.16-1.73-11.65-2.13-6.96,2.04-13.5,5.3-19.63,9.78-17.99,24.05-25.36,50.95-22.08,80.69-1.23,23.23,4.49,44.84,17.17,64.81,6.14,4.49,13.69,6.94,22.69,7.33,5.72-2.03,11.86-5.29,18.4-9.78,15.54-21.19,23.71-45.03,24.53-71.53,3.68-28.52-2.87-53.59-19.63-75.19h.01ZM2136.22,278.08c-.21,2.24-.52,4.59-.92,7.04-.82,23.64-7.35,44.43-19.63,62.35-.82.82-1.63,1.32-2.45,1.53s-1.63.72-2.44,1.53c-.42-3.26-.72-6.31-.92-9.17-.21-2.84-.3-5.89-.3-9.17v-7.95c-.42-2.03-.62-3.86-.62-5.5v-5.5c0-22.42,6.54-42.18,19.63-59.3,2.45-1.63,4.09-2.65,4.91-3.05,2.04,7.33,3.06,14.27,3.06,20.78,0,2.05-.1,4.19-.3,6.42h-.02ZM2129.78,211.13c-3.28-1.62-6.54-2.95-9.81-3.97-3.29-1.01-7.16-1.73-11.65-2.13-6.96,2.04-13.5,5.3-19.63,9.78-17.99,24.05-25.36,50.95-22.08,80.69-1.23,23.23,4.49,44.84,17.17,64.81,6.14,4.49,13.69,6.94,22.69,7.33,5.72-2.03,11.86-5.29,18.4-9.78,15.54-21.19,23.71-45.03,24.53-71.53,3.68-28.52-2.87-53.59-19.63-75.19h.01ZM2136.22,278.08c-.21,2.24-.52,4.59-.92,7.04-.82,23.64-7.35,44.43-19.63,62.35-.82.82-1.63,1.32-2.45,1.53s-1.63.72-2.44,1.53c-.42-3.26-.72-6.31-.92-9.17-.21-2.84-.3-5.89-.3-9.17v-7.95c-.42-2.03-.62-3.86-.62-5.5v-5.5c0-22.42,6.54-42.18,19.63-59.3,2.45-1.63,4.09-2.65,4.91-3.05,2.04,7.33,3.06,14.27,3.06,20.78,0,2.05-.1,4.19-.3,6.42h-.02ZM2249.36,197.08l-17.17-16.51c-21.27-32.19-57.24-48.3-107.93-48.3h-14.11c-4.5,0-9,.41-13.49,1.22-91.99,27.72-137.99,86.61-137.99,176.69v4.88c4.91,49.32,22.08,84.17,51.51,104.55l17.79,17.12c20.85,20.79,50.07,31.18,87.69,31.18,10.21,0,20.64-.62,31.28-1.84,89.94-25.67,135.94-85.79,137.99-180.35-3.68-39.13-15.55-68.67-35.57-88.64h0ZM2114.44,423.28c-85.45,11.82-132.67-24.66-141.66-109.44-1.23-85.17,40.87-140.61,126.33-166.28,87.89-9.37,135.53,26.89,142.88,108.82-1.63,87.22-44.15,142.86-127.56,166.9h0ZM2119.97,207.16c-3.29-1.01-7.16-1.73-11.65-2.13-6.96,2.04-13.5,5.3-19.63,9.78-17.99,24.05-25.36,50.95-22.08,80.69-1.23,23.23,4.49,44.84,17.17,64.81,6.14,4.49,13.69,6.94,22.69,7.33,5.72-2.03,11.86-5.29,18.4-9.78,15.54-21.19,23.71-45.03,24.53-71.53,3.68-28.52-2.87-53.59-19.63-75.19-3.28-1.62-6.54-2.95-9.81-3.97h.01ZM2136.52,271.66c0,2.05-.1,4.19-.3,6.42-.21,2.24-.52,4.59-.92,7.04-.82,23.64-7.35,44.43-19.63,62.35-.82.82-1.63,1.32-2.45,1.53s-1.63.72-2.44,1.53c-.42-3.26-.72-6.31-.92-9.17-.21-2.84-.3-5.89-.3-9.17v-7.95c-.42-2.03-.62-3.86-.62-5.5v-5.5c0-22.42,6.54-42.18,19.63-59.3,2.45-1.63,4.09-2.65,4.91-3.05,2.04,7.33,3.06,14.27,3.06,20.78h-.02Z"/>
    <path class="cls-2" d="M2099.12,147.56c-85.46,25.67-127.56,81.11-126.33,166.28,8.99,84.78,56.21,121.26,141.66,109.44,83.41-24.04,125.93-79.68,127.56-166.9-7.35-81.93-54.99-118.2-142.88-108.82h-.01ZM2149.4,286.33c-.82,26.5-9,50.34-24.53,71.53-6.54,4.49-12.68,7.74-18.4,9.78-9-.39-16.55-2.84-22.69-7.33-12.68-19.97-18.4-41.58-17.17-64.81-3.28-29.75,4.09-56.64,22.08-80.69,6.13-4.48,12.67-7.73,19.63-9.78,4.49.4,8.37,1.12,11.65,2.13,3.27,1.02,6.53,2.36,9.81,3.97,16.76,21.61,23.31,46.67,19.63,75.19h-.01Z"/>
    <path class="cls-1" d="M2550.47,190.35c-2.86-4.88-6.14-8.96-9.81-12.22l-19.63-18.95c-11.87-19.16-27.81-28.74-47.84-28.74-11.86,0-25.75,3.67-41.69,11-8.59-6.51-17.38-9.78-26.37-9.78-1.64,0-3.38.1-5.21.3-1.85.21-4.6.72-8.28,1.53l-2.45,1.83-.62.62-12.88,4.28-5.52,1.22-3.06,2.45c-4.5.82-8.18,2.04-11.03,3.67l-10.43,2.45c-6.96,3.27-12.88,5.6-17.79,7.03-4.91,1.44-9.2,2.75-12.88,3.97-11.03,7.34-18.4,14.06-22.07,20.17-1.64,6.53-2.45,13.66-2.45,21.4,0,16.71,5.72,27.71,17.17,33.01l8.58,9.17-14.72,108.21-2.45.62c-3.28.4-6.34.91-9.2,1.53-2.86.61-5.93,1.94-9.2,3.97-6.13,7.33-10.94,14.47-14.41,21.39-3.48,6.94-5.21,13.45-5.21,19.56,0,4.89.82,9.59,2.45,14.06,1.63,4.49,4.09,9.17,7.36,14.05l4.29,1.84,28.22,27.51,13.49,4.28h142.28l14.1-9.78c4.09-6.93,6.95-13.25,8.59-18.96,1.63-5.7,2.45-11,2.45-15.89v-7.95c-2.05-3.67-4.91-7.34-8.59-11l-20.23-20.18v-.61c-.82-1.63-1.84-3.06-3.06-4.28-1.23-1.22-2.45-2.65-3.68-4.29l13.49-92.92c.81-.82,1.43-1.54,1.84-2.14.41-.62.82-1.31,1.23-2.14,9.82,6.12,20.45,9.17,31.9,9.17,14.72,0,30.04-6.72,45.99-20.17l2.45-4.28.62-.62c2.04-2.45,3.57-4.48,4.59-6.11,1.01-1.63,1.94-3.46,2.76-5.51l4.91-37.9c-2.45-5.71-5.11-11.01-7.97-15.9l-.03.03ZM2510.61,209.91c-.82,1.64-1.74,3.27-2.76,4.89-1.02,1.64-2.36,3.47-3.99,5.5l-1.23,2.45c-23.72,19.98-47.22,20.38-70.53,1.22-2.05,2.04-3.99,4.49-5.82,7.34-1.85,2.85-3.99,5.9-6.44,9.17l-15.33,107.59c-.41,2.45-.72,5.11-.91,7.96-.21,2.85.09,5.9.91,9.17,17.17-.4,29.44,5.1,36.8,16.5,1.23,9.38-1.44,19.78-7.97,31.18l-8.58,6.12h-136.76l-7.36-2.45c-9-13.85-6.34-29.14,7.97-45.85,1.63-.82,3.47-1.43,5.53-1.84,2.04-.39,4.29-.81,6.74-1.22l13.49-3.66,19.63-140.01c-25.36,2.45-34.55-9.78-27.6-36.68,2.85-4.89,7.35-9.37,13.49-13.45,6.95-1.63,16.15-4.89,27.6-9.79l14.11-3.05c2.45-2.45,5.72-3.67,9.81-3.67l3.68-2.45,5.52-1.22,13.49-4.88,3.68-2.45c13.89-2.45,24.53,1.63,31.89,12.22,42.52-23.63,70.94-17.32,85.25,18.96l-4.29,32.4h-.02Z"/>
    <path class="cls-2" d="M2514.9,177.51l-4.29,32.4c-.82,1.64-1.74,3.27-2.76,4.89-1.02,1.64-2.36,3.47-3.99,5.5l-1.23,2.45c-23.72,19.98-47.22,20.38-70.53,1.22-2.05,2.04-3.99,4.49-5.82,7.34-1.85,2.85-3.99,5.9-6.44,9.17l-15.33,107.59c-.41,2.45-.72,5.11-.91,7.96-.21,2.85.09,5.9.91,9.17,17.17-.4,29.44,5.1,36.8,16.5,1.23,9.38-1.44,19.78-7.97,31.18l-8.58,6.12h-136.76l-7.36-2.45c-9-13.85-6.34-29.14,7.97-45.85,1.63-.82,3.47-1.43,5.53-1.84,2.04-.39,4.29-.81,6.74-1.22l13.49-3.66,19.63-140.01c-25.36,2.45-34.55-9.78-27.6-36.68,2.85-4.89,7.35-9.37,13.49-13.45,6.95-1.63,16.15-4.89,27.6-9.79l14.11-3.05c2.45-2.45,5.72-3.67,9.81-3.67l3.68-2.45,5.52-1.22,13.49-4.88,3.68-2.45c13.89-2.45,24.53,1.63,31.89,12.22,42.52-23.63,70.94-17.32,85.25,18.96h-.02Z"/>
    <path class="cls-1" d="M2760.2,183.62l-23.31-22.62c-2.45-5.7-5.93-9.98-10.43-12.84-1.23-13.45-4.71-23.22-10.43-29.34l-23.3-22.62c-6.14-13.04-18-19.56-35.57-19.56h-10.43c-6.96,4.49-12.58,9.07-16.87,13.75-4.29,4.69-8.28,9.28-11.96,13.76l-1.84,2.45-3.07,3.66-4.29,4.89-3.68,4.28-.61.62-27.6,26.29-8.59,4.28c-6.96,4.89-14.31,12.64-22.08,23.23l-3.67,28.12c5.3,10.19,12.05,17.73,20.23,22.63l4.29,4.88-19.63,141.23,1.23,14.67c1.63,4.49,2.45,8.55,2.45,12.22,7.36,15.89,16.96,27.51,28.82,34.85l20.23,19.56c11.04,11,24.12,17.12,39.25,18.34h7.36c43.33,0,77.67-18.75,103.03-56.25,1.23-3.67,1.94-6.82,2.15-9.47.19-2.65.3-4.99.3-7.04,0-10.6-4.1-19.96-12.27-28.12l-.79-.53c.26.08.53.26.79.53l-21.46-21.4c-4.09-6.11-9-11.41-14.72-15.89-.82,0-1.33-.09-1.53-.3-.21-.2-.72-.3-1.53-.3l9.81-72.14h1.85c37.61,0,56.41-18.34,56.41-55.02v-4.28c-1.23-6.51-4.09-12.02-8.58-16.51h.04ZM2669.44,216.03l-18.4,132.66v8.56h6.14c11.85-14.27,25.54-18.34,41.09-12.23,10.21,7.34,13.49,18.14,9.81,32.41-23.71,35.46-56.42,52.17-98.12,50.13-20.04-1.63-34.96-12.84-44.77-33.63,0-4.06-.82-8.34-2.45-12.83l-1.23-9.79,22.08-153.45c-12.27-2.03-21.07-8.15-26.37-18.34l3.06-21.39c4.49-6.12,9.82-11.2,15.94-15.29l8.59-4.88,30.05-28.74,4.29-4.89,4.29-4.89,4.29-4.88,1.23-1.84c2.86-4.06,6.02-7.95,9.5-11.62,3.47-3.66,7.87-7.12,13.18-10.38h2.45c27.8-1.63,35.97,19.16,24.53,62.35,28.61-2.03,44.35,4.28,47.22,18.95.41,33.43-18.4,48.1-56.42,44.02h.02Z"/>
    <path class="cls-2" d="M2651.04,348.69v8.56h6.14c11.85-14.27,25.54-18.34,41.09-12.23,10.21,7.34,13.49,18.14,9.81,32.41-23.71,35.46-56.42,52.17-98.12,50.13-20.04-1.63-34.96-12.84-44.77-33.63,0-4.06-.82-8.34-2.45-12.83l-1.23-9.79,22.08-153.45c-12.27-2.03-21.07-8.15-26.37-18.34l3.06-21.39c4.49-6.12,9.82-11.2,15.94-15.29l8.59-4.88,30.05-28.74,4.29-4.89,4.29-4.89,4.29-4.88,1.23-1.84c2.86-4.06,6.02-7.95,9.5-11.62,3.47-3.66,7.87-7.12,13.18-10.38h2.45c27.8-1.63,35.97,19.16,24.53,62.35,28.61-2.03,44.35,4.28,47.22,18.95.41,33.43-18.4,48.1-56.42,44.02l-18.4,132.66h.02Z"/>
    <path class="cls-1" d="M2882.84,348.39c-1.23-1.84-2.86-3.77-4.91-5.81-2.86-2.03-7.35-4.48-13.49-7.33l-21.46-13.46-6.74-2.44-12.88-7.95c2.04,48.5,21.66,66.43,58.88,53.8l4.29-11.01c-1.23-2.03-2.45-3.97-3.68-5.8h-.01ZM2898.17,206.25c-5.73-2.45-12.47-3.67-20.24-3.67-11.03,4.49-14.51,11.21-10.43,20.17l30.05,18.95,9.82,6.12c2.04,1.64,3.77,2.75,5.21,3.37,1.42.61,2.34,1.12,2.76,1.53-.42-15.08-6.14-30.57-17.17-46.46h0ZM2898.17,206.25c-5.73-2.45-12.47-3.67-20.24-3.67-11.03,4.49-14.51,11.21-10.43,20.17l30.05,18.95,9.82,6.12c2.04,1.64,3.77,2.75,5.21,3.37,1.42.61,2.34,1.12,2.76,1.53-.42-15.08-6.14-30.57-17.17-46.46h0ZM2877.93,342.57c-2.86-2.03-7.35-4.48-13.49-7.33l-21.46-13.46-6.74-2.44-12.88-7.95c2.04,48.5,21.66,66.43,58.88,53.8l4.29-11.01c-1.23-2.03-2.45-3.97-3.68-5.8-1.23-1.84-2.86-3.77-4.91-5.81h-.01ZM2993.84,301.62c2.05-1.22,4.19-2.45,6.44-3.67,2.24-1.22,4.39-2.64,6.44-4.28l7.36-14.06,8.58-89.26-12.88-16.5-20.84-20.18-9.2-12.22c-9.01-3.26-16.78-4.89-23.31-4.89-6.14,0-12.26,1.03-18.4,3.06l-12.88-4.89-12.26-1.22h-46.6c-55.19,13.45-87.91,42.39-98.13,86.81l-.61.62c-1.23,6.94-1.85,14.27-1.85,22,0,18.34,4.91,34.25,14.72,47.69-6.54,2.85-13.89,6.94-22.07,12.22l-3.68,11-13.49,97.21c4.49,11.42,11.24,19.17,20.23,23.23l21.46,21.39c4.49,4.5,9.6,7.55,15.34,9.17,2.04.41,3.99.72,5.82.92,1.85.21,3.99.3,6.44.3,8.99,0,16.96-1.42,23.92-4.28,18.4,4.89,35.77,7.34,52.13,7.34,39.65,0,75.02-13.85,106.09-41.58,18.4-26.08,27.6-49.52,27.6-70.3s-7.57-37.5-22.69-52.59l-3.68-3.05h0ZM2953.37,387.82c-42.53,37.5-92.61,47.48-150.25,29.96-10.64,5.3-22.08,6.72-34.35,4.28-6.13-1.63-10.42-5.9-12.87-12.84l12.87-92.31,1.85-5.5c11.86-8.15,24.73-12.23,38.63-12.23-24.52-16.3-33.72-41.36-27.6-75.19,9.4-39.13,38.02-64.6,85.85-76.42h44.16l9.81,1.22,16.56,6.11c11.03-4.88,22.28-5.29,33.73-1.22l7.35,9.79-7.97,81.92-4.91,9.79c-7.35,5.71-17.37,9.37-30.04,11,48.64,29.34,54.36,69.91,17.17,121.66v-.02ZM2877.93,202.58c-11.03,4.49-14.51,11.21-10.43,20.17l30.05,18.95,9.82,6.12c2.04,1.64,3.77,2.75,5.21,3.37,1.42.61,2.34,1.12,2.76,1.53-.42-15.08-6.14-30.57-17.17-46.46-5.73-2.45-12.47-3.67-20.24-3.67h0ZM2877.93,342.57c-2.86-2.03-7.35-4.48-13.49-7.33l-21.46-13.46-6.74-2.44-12.88-7.95c2.04,48.5,21.66,66.43,58.88,53.8l4.29-11.01c-1.23-2.03-2.45-3.97-3.68-5.8-1.23-1.84-2.86-3.77-4.91-5.81h-.01ZM2882.84,348.39c-1.23-1.84-2.86-3.77-4.91-5.81-2.86-2.03-7.35-4.48-13.49-7.33l-21.46-13.46-6.74-2.44-12.88-7.95c2.04,48.5,21.66,66.43,58.88,53.8l4.29-11.01c-1.23-2.03-2.45-3.97-3.68-5.8h-.01ZM2898.17,206.25c-5.73-2.45-12.47-3.67-20.24-3.67-11.03,4.49-14.51,11.21-10.43,20.17l30.05,18.95,9.82,6.12c2.04,1.64,3.77,2.75,5.21,3.37,1.42.61,2.34,1.12,2.76,1.53-.42-15.08-6.14-30.57-17.17-46.46h0ZM2882.84,348.39c-1.23-1.84-2.86-3.77-4.91-5.81-2.86-2.03-7.35-4.48-13.49-7.33l-21.46-13.46-6.74-2.44-12.88-7.95c2.04,48.5,21.66,66.43,58.88,53.8l4.29-11.01c-1.23-2.03-2.45-3.97-3.68-5.8h-.01ZM2898.17,206.25c-5.73-2.45-12.47-3.67-20.24-3.67-11.03,4.49-14.51,11.21-10.43,20.17l30.05,18.95,9.82,6.12c2.04,1.64,3.77,2.75,5.21,3.37,1.42.61,2.34,1.12,2.76,1.53-.42-15.08-6.14-30.57-17.17-46.46h0Z"/>
    <path class="cls-2" d="M2936.2,266.16c12.67-1.63,22.69-5.29,30.04-11l4.91-9.79,7.97-81.92-7.35-9.79c-11.45-4.06-22.7-3.66-33.73,1.22l-16.56-6.11-9.81-1.22h-44.16c-47.83,11.82-76.45,37.29-85.85,76.42-6.13,33.83,3.07,58.9,27.6,75.19-13.91,0-26.78,4.08-38.63,12.23l-1.85,5.5-12.87,92.31c2.45,6.94,6.74,11.21,12.87,12.84,12.27,2.45,23.71,1.02,34.35-4.28,57.64,17.52,107.72,7.54,150.25-29.96,37.19-51.76,31.47-92.32-17.17-121.66v.02ZM2882.23,365.2c-37.21,12.63-56.84-5.3-58.88-53.8l12.88,7.95,6.74,2.44,21.46,13.46c6.14,2.85,10.63,5.3,13.49,7.33,2.05,2.04,3.68,3.97,4.91,5.81,1.23,1.83,2.45,3.77,3.68,5.8l-4.29,11.01h.01ZM2912.59,251.18c-1.44-.62-3.17-1.73-5.21-3.37l-9.82-6.12-30.05-18.95c-4.09-8.96-.61-15.68,10.43-20.17,7.77,0,14.51,1.22,20.24,3.67,11.03,15.89,16.76,31.38,17.17,46.46-.42-.4-1.34-.92-2.76-1.53h0Z"/>
    <path class="cls-1" d="M1634.58,64.1c-1.44-2.64-3.38-5.59-5.82-8.86l-23.93-23.23c-.82-1.22-1.63-2.54-2.45-3.97s-2.05-3.15-3.67-5.2c-10.22-4.48-19.23-6.72-26.99-6.72-11.45,0-22.49,4.69-33.11,14.05-20.85-8.96-42.53-13.45-65-13.45-3.68,0-7.16.11-10.43.3-3.28.21-6.54.52-9.82.92-54.37,12.64-90.97,43.62-109.77,92.93v.61c-3.28,9.79-5.63,19.17-7.05,28.13-1.44,8.97-2.15,17.94-2.15,26.89,0,21.2,4.49,40.56,13.49,58.09l12.88,16.5c5.72,7.34,11.04,12.84,15.94,16.51l3.68,3.66c1.23,1.22,2.76,2.66,4.6,4.29s3.57,3.05,5.2,4.28l12.27,11.62c.81.82,1.84,1.74,3.06,2.75,1.23,1.02,2.24,1.94,3.06,2.75l3.68,3.67c2.04,1.63,4.09,3.27,6.14,4.88,2.04,1.64,3.68,2.86,4.91,3.67l1.23.62,39.86,29.34c1.62,3.67,2.45,7.54,2.45,11.62s-1.03,8.77-3.07,14.06c-2.86,4.49-5.93,7.74-9.2,9.78-3.67.82-7.15,1.44-10.43,1.83-3.28.41-6.13.62-8.58.62-6.96,0-12.68-1.01-17.17-3.05-4.1-10.6-6.96-22.82-8.59-36.68-2.45-4.89-5.52-9.17-9.2-12.84l-20.84-20.17c-4.51-7.74-11.26-14.47-20.24-20.18h-1.23c-1.63-.39-3.28-.71-4.9-.92-1.64-.19-4.1-.3-7.36-.3-17.17,0-32.3,7.14-45.39,21.4l-4.29,29.34v9.17c0,.4-.1.72-.3.92-.21.2-.3.52-.3.91v1.84c0,.82-.11,1.43-.31,1.83-.2.41-.3,1.02-.3,1.83v6.73c0,1.21.2,2.65.62,4.28v3.05l.61,22.01c-.41,2.04-.61,3.88-.61,5.5v9.79c0,2.04.2,4.07.61,6.11v15.29c-.41,2.45-.61,4.89-.61,7.33v14.68c0,2.45.2,4.49.61,6.11l12.88,18.34c1.63.83,2.86,1.22,3.68,1.22l27.6,27.51c8.99,2.86,16.76,4.28,23.3,4.28,13.08,0,25.14-4.28,36.19-12.83,24.93,9.78,48.65,14.67,71.14,14.67,54.78,0,100.16-29.54,136.14-88.65,9.4-24.04,14.11-46.86,14.11-68.47,0-34.64-12.07-63.98-36.19-88.04l-15.33-14.67-1.85-1.83c3.28,1.63,6.75,3.05,10.43,4.28,1.23,0,2.66.1,4.3.3,1.62.21,2.85.3,3.67.3,14.73,0,28.22-5.7,40.48-17.12,2.04-4.89,3.68-9.98,4.91-15.28,1.23-5.3,2.24-10.8,3.06-16.51l-.61-4.28c1.23-4.07,1.84-9.17,1.84-15.29,0-2.03-.1-3.76-.3-5.2-.21-1.43-.3-2.54-.3-3.36.4-3.27.71-6.21.91-8.87.2-2.65.31-5.6.31-8.87l1.22-19.56-.61-2.45,1.23-7.33-.62-7.34v-7.33c.41-3.27.71-6.22.92-8.87.2-2.65.3-5.6.3-8.87v-8.55c-1.63-2.85-3.16-5.6-4.59-8.26h0ZM1595.63,82.14l-1.23,7.95.62,3.67-1.23,18.34c0,5.3-.61,11.21-1.84,17.72.81,3.27,1.12,6.63.91,10.09-.21,3.47-.72,7.44-1.53,11.92l.62,6.12c-.42,4.07-1.14,8.16-2.15,12.22-1.02,4.07-2.35,8.16-3.99,12.22-10.64,9.38-22.69,13.26-36.19,11.62-2.05-.81-4.39-2.03-7.05-3.67-2.67-1.62-5.21-3.46-7.67-5.5-8.58-68.88-36.8-94.55-84.63-77.02-22.08,26.49-2.05,57.46,60.1,92.92,65.81,37.5,84.01,94.36,54.58,170.57-47.83,77.85-114.06,98.84-198.7,62.97-14.31,14.67-30.66,18.96-49.06,12.84l-6.74-9.78c-.82-6.12-.82-13.85,0-23.23v-18.34c-.42-7.73-.42-14.06,0-18.96l-.62-22,.62-4.89c-.82-2.03-1.14-4.59-.92-7.64.2-3.05.51-6.21.92-9.47v-7.34l3.68-24.45c11.03-11.82,24.93-16.1,41.69-12.84,4.49,2.45,8.17,6.32,11.05,11.62,9.81,65.22,40.87,91.3,93.22,78.25,2.85-2.03,5.71-4.58,8.58-7.63,2.86-3.06,5.72-6.62,8.59-10.71,4.9-13.03,4.69-25.87-.62-38.51-2.05-2.85-4.59-5.9-7.67-9.17-3.06-3.26-6.85-6.51-11.34-9.78l-7.36-6.73-2.45-2.44-46.6-33.63c-1.23-.81-2.87-1.93-4.91-3.37-2.05-1.42-4.29-3.14-6.74-5.19l-4.29-4.29c-4.5-3.26-9-7.95-13.49-14.05l-11.04-14.06c-15.54-28.52-16.77-62.76-3.68-102.71,17.17-44.43,49.68-72.34,97.51-83.76,30.67-3.67,59.69,1.44,87.08,15.29,12.67-17.13,28.82-21.4,48.45-12.84,1.23,1.63,2.35,3.27,3.38,4.88,1.01,1.64,1.94,3.47,2.76,5.51.41,5.3,0,13.04-1.23,23.22v8.56l.61,5.5h0ZM1521.43,190.96c-2.05-.4-3.48-1.22-4.29-2.45-6.14-3.26-11.75-6.51-16.87-9.78-5.12-3.27-9.92-6.52-14.41-9.79-.82-4.06-1.23-7.13-1.23-9.17,0-3.67,1.23-7.33,3.68-11,7.35-2.45,13.89-3.67,19.63-3.67h2.45c4.9,11.83,8.58,27.11,11.03,45.85h.01Z"/>
    <path class="cls-2" d="M1595.63,82.14l-1.23,7.95.62,3.67-1.23,18.34c0,5.3-.61,11.21-1.84,17.72.81,3.27,1.12,6.63.91,10.09-.21,3.47-.72,7.44-1.53,11.92l.62,6.12c-.42,4.07-1.14,8.16-2.15,12.22-1.02,4.07-2.35,8.16-3.99,12.22-10.64,9.38-22.69,13.26-36.19,11.62-2.05-.81-4.39-2.03-7.05-3.67-2.67-1.62-5.21-3.46-7.67-5.5-8.58-68.88-36.8-94.55-84.63-77.02-22.08,26.49-2.05,57.46,60.1,92.92,65.81,37.5,84.01,94.36,54.58,170.57-47.83,77.85-114.06,98.84-198.7,62.97-14.31,14.67-30.66,18.96-49.06,12.84l-6.74-9.78c-.82-6.12-.82-13.85,0-23.23v-18.34c-.42-7.73-.42-14.06,0-18.96l-.62-22,.62-4.89c-.82-2.03-1.14-4.59-.92-7.64.2-3.05.51-6.21.92-9.47v-7.34l3.68-24.45c11.03-11.82,24.93-16.1,41.69-12.84,4.49,2.45,8.17,6.32,11.05,11.62,9.81,65.22,40.87,91.3,93.22,78.25,2.85-2.03,5.71-4.58,8.58-7.63,2.86-3.06,5.72-6.62,8.59-10.71,4.9-13.03,4.69-25.87-.62-38.51-2.05-2.85-4.59-5.9-7.67-9.17-3.06-3.26-6.85-6.51-11.34-9.78l-7.36-6.73-2.45-2.44-46.6-33.63c-1.23-.81-2.87-1.93-4.91-3.37-2.05-1.42-4.29-3.14-6.74-5.19l-4.29-4.29c-4.5-3.26-9-7.95-13.49-14.05l-11.04-14.06c-15.54-28.52-16.77-62.76-3.68-102.71,17.17-44.43,49.68-72.34,97.51-83.76,30.67-3.67,59.69,1.44,87.08,15.29,12.67-17.13,28.82-21.4,48.45-12.84,1.23,1.63,2.35,3.27,3.38,4.88,1.01,1.64,1.94,3.47,2.76,5.51.41,5.3,0,13.04-1.23,23.22v8.56l.61,5.5h0Z"/>
    <path class="cls-1" d="M1308.02,63.8l.62.62c0-.4-.21-.62-.62-.62ZM1132.02,205.03c-31.08,17.52-46.21,47.68-45.39,90.47-2.44,35.06,11.04,54.63,40.48,58.69,6.53-.81,12.88-3.67,19.02-8.55,1.62-3.26,2.76-7.24,3.37-11.92.62-4.68,1.33-9.88,2.15-15.59l11.65-85.59v-9.79c-5.73-11.82-16.16-17.72-31.28-17.72h0ZM1137.54,315.68c0,.82-.1,1.74-.3,2.75-.21,1.02-.3,1.94-.3,2.75-.42,1.22-.83,2.55-1.23,3.97-.42,1.44-.42,2.14,0,2.14-.42,1.22-.62,2.45-.62,3.67s-.21,2.23-.61,3.05c-.42.82-.62,1.44-.62,1.83,0,.41-.21,1.02-.61,1.84-1.23,1.22-2.45,1.83-3.68,1.83v-15.89c0-22.42,4.7-40.76,14.11-55.02l-6.14,47.08h0ZM1132.02,205.03c-31.08,17.52-46.21,47.68-45.39,90.47-2.44,35.06,11.04,54.63,40.48,58.69,6.53-.81,12.88-3.67,19.02-8.55,1.62-3.26,2.76-7.24,3.37-11.92.62-4.68,1.33-9.88,2.15-15.59l11.65-85.59v-9.79c-5.73-11.82-16.16-17.72-31.28-17.72h0ZM1137.54,315.68c0,.82-.1,1.74-.3,2.75-.21,1.02-.3,1.94-.3,2.75-.42,1.22-.83,2.55-1.23,3.97-.42,1.44-.42,2.14,0,2.14-.42,1.22-.62,2.45-.62,3.67s-.21,2.23-.61,3.05c-.42.82-.62,1.44-.62,1.83,0,.41-.21,1.02-.61,1.84-1.23,1.22-2.45,1.83-3.68,1.83v-15.89c0-22.42,4.7-40.76,14.11-55.02l-6.14,47.08h0ZM1280.43,356.03l39.24-280.01c-1.23-2.03-2.56-3.76-3.99-5.2-1.43-1.42-2.76-2.75-3.99-3.97l-3.06-2.44-.62-.62-17.78-17.72.61-1.22c-11.86-15.89-25.35-23.85-40.47-23.85-1.64,0-3.38.11-5.21.31-1.85.2-5.21.91-10.12,2.13l-11.65,4.29c-4.91.82-9.2,2.04-12.88,3.66l-1.22.62-8.59,2.45h-4.29l-6.14,3.05c-15.54,3.27-27.6,6.94-36.18,11-10.22,10.2-16.16,21.2-17.79,33.02,0,20.78,6.53,33.83,19.63,39.12l7.97,7.95-.61,4.89c-2.45-.4-4.91-.61-7.36-.61h-6.74c-24.13,0-46,4.99-65.62,14.97-19.63,9.99-38.02,24.97-55.19,44.93-31.08,41.17-46.6,83.35-46.6,126.56,0,19.16,2.66,36.88,7.97,53.18,12.26,21.61,26.37,38.32,42.31,50.13l17.17,16.51c20.03,19.97,43.95,29.96,71.76,29.96,7.76,0,15.63-.62,23.6-1.84,7.97-1.22,16.26-3.46,24.84-6.72,1.23.82,2.66,1.84,4.3,3.06,1.62,1.21,3.67,2.44,6.13,3.66,1.63,0,3.58.11,5.83.3,2.24.21,3.99.31,5.21.31,4.49,0,10.82-1.01,19.01-3.06l2.45-1.21,12.88-3.06c2.85-1.62,5.41-2.75,7.66-3.36,2.24-.62,4.39-1.12,6.44-1.54l21.47-7.95h-.62l7.97-2.44,19.63-6.73c2.86-2.84,5.42-5.5,7.67-7.95,2.24-2.45,5-5.5,8.28-9.17,1.23-4.48,2.24-8.45,3.07-11.92.81-3.46,1.22-6.81,1.22-10.08,0-11.01-2.86-19.35-8.58-25.07l-19.01-18.33h0ZM1235.05,345.64c26.16,0,35.15,13.25,26.99,39.74-1.64,2.04-3.38,3.97-5.21,5.8-1.85,1.84-3.79,3.78-5.83,5.81l-20.23,7.33-4.91,1.22-20.23,7.34c-2.05.4-4.2.92-6.44,1.53-2.25.61-4.81,1.74-7.67,3.37l-13.49,3.05-4.91,2.45c-3.28.82-6.54,1.32-9.81,1.53-3.29.21-6.96.1-11.05-.3-2.05-1.22-3.88-2.55-5.52-3.97-1.64-1.43-3.48-3.15-5.52-5.2-60.92,24.05-106.92,8.16-137.99-47.69-17.17-55.01-5.11-110.44,36.19-166.28,35.57-43.61,80.95-61.14,136.14-52.58l5.52-39.13c-20.45,2.04-30.66-6.72-30.66-26.29,1.23-8.96,4.91-16.51,11.03-22.62,7.76-4.07,18.6-7.34,32.51-9.79l5.52-2.45h3.68l11.65-3.66c2.85-1.63,7.14-2.85,12.88-3.67l15.32-5.5c13.9-2.45,24.93,1.83,33.11,12.83l-41.09,297.13h.02ZM1132.02,205.03c-31.08,17.52-46.21,47.68-45.39,90.47-2.44,35.06,11.04,54.63,40.48,58.69,6.53-.81,12.88-3.67,19.02-8.55,1.62-3.26,2.76-7.24,3.37-11.92.62-4.68,1.33-9.88,2.15-15.59l11.65-85.59v-9.79c-5.73-11.82-16.16-17.72-31.28-17.72h0ZM1137.54,315.68c0,.82-.1,1.74-.3,2.75-.21,1.02-.3,1.94-.3,2.75-.42,1.22-.83,2.55-1.23,3.97-.42,1.44-.42,2.14,0,2.14-.42,1.22-.62,2.45-.62,3.67s-.21,2.23-.61,3.05c-.42.82-.62,1.44-.62,1.83,0,.41-.21,1.02-.61,1.84-1.23,1.22-2.45,1.83-3.68,1.83v-15.89c0-22.42,4.7-40.76,14.11-55.02l-6.14,47.08h0Z"/>
    <path class="cls-2" d="M1235.05,345.64l41.09-297.13c-8.18-11-19.22-15.28-33.11-12.83l-15.32,5.5c-5.74.82-10.03,2.04-12.88,3.67l-11.65,3.66h-3.68l-5.52,2.45c-13.91,2.45-24.75,5.71-32.51,9.79-6.13,6.11-9.81,13.66-11.03,22.62,0,19.56,10.21,28.33,30.66,26.29l-5.52,39.13c-55.19-8.56-100.57,8.97-136.14,52.58-41.3,55.84-53.36,111.27-36.19,166.28,31.07,55.85,77.06,71.75,137.99,47.69,2.04,2.04,3.87,3.77,5.52,5.2,1.63,1.43,3.47,2.75,5.52,3.97,4.09.4,7.76.52,11.05.3,3.27-.2,6.53-.71,9.81-1.53l4.91-2.45,13.49-3.05c2.86-1.63,5.42-2.76,7.67-3.37,2.24-.61,4.39-1.12,6.44-1.53l20.23-7.34,4.91-1.22,20.23-7.33c2.04-2.03,3.99-3.97,5.83-5.81,1.84-1.83,3.57-3.76,5.21-5.8,8.16-26.49-.83-39.74-26.99-39.74h-.02ZM1163.3,232.54l-11.65,85.59c-.82,5.71-1.53,10.91-2.15,15.59-.61,4.68-1.74,8.67-3.37,11.92-6.14,4.88-12.49,7.74-19.02,8.55-29.43-4.06-42.92-23.63-40.48-58.69-.82-42.79,14.31-72.95,45.39-90.47,15.12,0,25.55,5.9,31.28,17.72v9.79Z"/>
    <path class="cls-1" d="M838.89,228.25c-3.28-4.88-7.97-7.73-14.11-8.55-9.41,3.27-19.01,9.38-28.82,18.34l-18.4,130.22c12.27,5.71,26.17,5.71,41.7,0,.81-2.85,1.53-5.9,2.15-9.17.61-3.26,1.32-6.72,2.14-10.39l14.11-100.26c.81-2.85,1.43-5.9,1.84-9.17.41-3.26.2-6.93-.61-11.01h0ZM838.89,228.25c-3.28-4.88-7.97-7.73-14.11-8.55-9.41,3.27-19.01,9.38-28.82,18.34l-18.4,130.22c12.27,5.71,26.17,5.71,41.7,0,.81-2.85,1.53-5.9,2.15-9.17.61-3.26,1.32-6.72,2.14-10.39l14.11-100.26c.81-2.85,1.43-5.9,1.84-9.17.41-3.26.2-6.93-.61-11.01h0ZM974.12,406.16c-1.44-2.04-2.97-3.87-4.6-5.5l-15.34-15.29,11.04-84.98c3.68-16.3,5.52-31.99,5.52-47.08,0-28.12-7.16-49.31-21.46-63.58l-19.63-19.56c-14.32-23.23-39.86-34.85-76.66-34.85-3.68,0-7.27.11-10.74.31-3.47.21-6.85.52-10.11.91-9.41,2.86-17.59,5.91-24.53,9.17-8.58-7.33-18.2-11-28.82-11h-6.74c-2.05,0-3.88.21-5.52.61l-6.74,3.67-27.6,9.17v.62l-3.68.61-5.52,1.22-33.73,9.79-7.35,6.11-9.2,9.79-5.52,37.91c5.3,9.37,12.26,16.1,20.84,20.17v.61l4.91,4.89-15.94,117.39c-24.53,8.15-36.8,24.04-36.8,47.68v5.5c0,1.22.1,2.35.3,3.37.2,1.02.31,1.73.31,2.13,6.95,9.38,13.28,15.89,19.01,19.56h1.84l15.34,15.29c.81,1.22,1.84,2.35,3.06,3.36,1.23,1.02,2.24,1.94,3.07,2.75,3.68,3.67,6.33,6.12,7.97,7.34h253.27c7.76-.4,15.12-3.26,22.08-8.56l8.58-11.61,3.68-31.8c-1.63-2.03-3.17-4.06-4.59-6.11h0ZM932.11,409.83l-4.3,6.11c-4.5,3.27-9.6,5.11-15.32,5.5h-247.76c-2.87-2.03-6.14-5.5-9.82-10.39-2.45-24.04,9.2-38.3,34.96-42.79l20.23-144.89c-12.26,2.04-21.67-1.84-28.21-11.62l4.29-28.74,6.74-7.34,3.06-2.45,31.28-9.17,4.91-1.22,4.91-1.22,28.82-9.78,4.9-2.45c14.72-3.26,26.17,1.64,34.34,14.67,6.95-5.7,16.35-10.18,28.22-13.45,77.67-8.55,107.32,30.37,88.92,116.77l-12.88,100.88c11.04,1.22,19.63,6.72,25.76,16.5l-3.06,25.07h0ZM824.78,219.7c-9.41,3.27-19.01,9.38-28.82,18.34l-18.4,130.22c12.27,5.71,26.17,5.71,41.7,0,.81-2.85,1.53-5.9,2.15-9.17.61-3.26,1.32-6.72,2.14-10.39l14.11-100.26c.81-2.85,1.43-5.9,1.84-9.17.41-3.26.2-6.93-.61-11.01-3.28-4.88-7.97-7.73-14.11-8.55h0Z"/>
    <path class="cls-2" d="M909.41,368.26l12.88-100.88c18.4-86.4-11.25-125.32-88.92-116.77-11.87,3.27-21.27,7.74-28.22,13.45-8.17-13.03-19.63-17.93-34.34-14.67l-4.9,2.45-28.82,9.78-4.91,1.22-4.91,1.22-31.28,9.17-3.06,2.45-6.74,7.34-4.29,28.74c6.53,9.78,15.94,13.66,28.21,11.62l-20.23,144.89c-25.76,4.49-37.41,18.75-34.96,42.79,3.68,4.89,6.95,8.36,9.82,10.39h247.76c5.72-.39,10.82-2.23,15.32-5.5l4.3-6.11,3.06-25.07c-6.14-9.78-14.72-15.28-25.76-16.5h0ZM839.5,239.26c-.41,3.27-1.02,6.32-1.84,9.17l-14.11,100.26c-.82,3.67-1.53,7.14-2.14,10.39-.62,3.27-1.34,6.32-2.15,9.17-15.54,5.71-29.43,5.71-41.7,0l18.4-130.22c9.82-8.96,19.41-15.08,28.82-18.34,6.14.82,10.83,3.67,14.11,8.55.81,4.08,1.01,7.76.61,11.01h0Z"/>
    <path class="cls-1" d="M641.43,239.26c2.04-9.37,3.37-18.65,3.99-27.81.61-9.18.91-17.43.91-24.76l-1.84-1.22c-.82-.82-1.33-1.53-1.53-2.14-.21-.61-.72-1.31-1.53-2.14l-15.34-14.67c20.44-10.59,31.89-33.42,34.34-68.47-4.5-11.4-10.02-20.37-16.55-26.89l-20.85-20.18c-12.27-19.15-29.44-28.74-51.51-28.74-4.51,0-8.08.11-10.74.31s-5.01.52-7.05.91c-33.11,20.38-49.68,41.79-49.68,64.19,0,17.53,9.6,34.65,28.82,51.35l3.68,1.84,4.91,4.88-63.17,21.4c-4.5,4.49-7.77,8.46-9.82,11.92-2.05,3.47-4.09,6.62-6.13,9.47-.42.41-.72.82-.92,1.22-.21.41-.52.82-.92,1.22-.41,1.63-.61,3.47-.61,5.5v6.12c0,17.94,6.33,29.55,19.01,34.84l12.27,12.23-11.65,83.75v-.61c-.42,1.22-.62,2.24-.62,3.05s-.21,1.84-.61,3.06c-.42,2.44-.83,4.88-1.23,7.33-.42,2.45-.82,4.89-1.23,7.34-4.5.4-9,1.12-13.49,2.13-4.5,1.02-9,2.36-13.5,3.97-11.45,14.67-17.17,27.31-17.17,37.91s5.53,22.01,16.56,34.24h2.45l28.82,28.74h150.25c3.27-2.45,5.72-4.48,7.35-6.12,1.63-1.62,3.28-3.26,4.91-4.88l5.52-5.5,1.23-6.72c.82-4.89,1.43-9.18,1.85-12.84.4-3.67.61-7.74.61-12.23v-9.17l-28.82-28.74,19.02-135.1h.01ZM608,389.65c-.61,4.49-1.33,9.59-2.14,15.29l-.62,3.05c-1.63,1.64-3.28,3.27-4.91,4.89-1.63,1.63-3.48,3.27-5.52,4.89h-140.43c-12.27-13.46-11.45-28.74,2.45-45.85,8.99-3.26,18.39-4.89,28.21-4.89l3.06-2.45c1.63-7.73,3.47-17.52,5.52-29.34l15.33-108.82c-26.58,3.27-38.02-7.34-34.34-31.79,1.23-2.04,2.66-4.38,4.29-7.04,1.63-2.64,3.88-5.39,6.74-8.25l93.22-31.79c9.4,0,17.58,4.28,24.53,12.84,0,5.71-.31,12.44-.92,20.17-.61,7.74-1.95,16.31-3.99,25.68l-22.08,158.34c12.27.41,22.89,4.89,31.89,13.45.41,3.27.31,7.14-.3,11.62h.01ZM541.47,127.99c-36.39-31.79-30.47-61.95,17.78-90.48,28.22-4.89,47.63,5.91,58.27,32.41-2.87,48.1-28.22,67.46-76.05,58.08h0Z"/>
    <path class="cls-2" d="M617.51,69.91c-2.87,48.1-28.22,67.46-76.05,58.08-36.39-31.79-30.47-61.95,17.78-90.48,28.22-4.89,47.63,5.91,58.27,32.41h0Z"/>
    <path class="cls-2" d="M608,389.65c-.61,4.49-1.33,9.59-2.14,15.29l-.62,3.05c-1.63,1.64-3.28,3.27-4.91,4.89-1.63,1.63-3.48,3.27-5.52,4.89h-140.43c-12.27-13.46-11.45-28.74,2.45-45.85,8.99-3.26,18.39-4.89,28.21-4.89l3.06-2.45c1.63-7.73,3.47-17.52,5.52-29.34l15.33-108.82c-26.58,3.27-38.02-7.34-34.34-31.79,1.23-2.04,2.66-4.38,4.29-7.04,1.63-2.64,3.88-5.39,6.74-8.25l93.22-31.79c9.4,0,17.58,4.28,24.53,12.84,0,5.71-.31,12.44-.92,20.17-.61,7.74-1.95,16.31-3.99,25.68l-22.08,158.34c12.27.41,22.89,4.89,31.89,13.45.41,3.27.31,7.14-.3,11.62h.01Z"/>
    <path class="cls-1" d="M357.5,109.65c-5.31-2.85-12.26-4.28-20.85-4.28l-3.68-1.22h-76.66c-1.63,4.07-2.76,8.55-3.37,13.45-.62,4.89-1.34,10.39-2.15,16.51l-7.97,55.63.61,5.5h39.25c7.76.82,14.5.41,20.23-1.22h7.36l5.52-1.22c8.17-10.59,13.69-23.22,16.56-37.91,8.99-8.55,20.02-12.83,33.11-12.83,0-12.63-2.67-23.44-7.97-32.41h0ZM318.86,147.56c-2.87,13.86-6.75,24.66-11.65,32.4h-6.14c-3.68,1.22-6.96,1.84-9.81,1.84l2.44-14.67c.41-1.63.62-3.06.62-4.29s.2-2.64.61-4.28c.41-2.03.62-3.86.62-5.5,0-2.03.2-4.06.61-6.12h23.31l-.61.62h0ZM357.5,109.65c-5.31-2.85-12.26-4.28-20.85-4.28l-3.68-1.22h-76.66c-1.63,4.07-2.76,8.55-3.37,13.45-.62,4.89-1.34,10.39-2.15,16.51l-7.97,55.63.61,5.5h39.25c7.76.82,14.5.41,20.23-1.22h7.36l5.52-1.22c8.17-10.59,13.69-23.22,16.56-37.91,8.99-8.55,20.02-12.83,33.11-12.83,0-12.63-2.67-23.44-7.97-32.41h0ZM318.86,147.56c-2.87,13.86-6.75,24.66-11.65,32.4h-6.14c-3.68,1.22-6.96,1.84-9.81,1.84l2.44-14.67c.41-1.63.62-3.06.62-4.29s.2-2.64.61-4.28c.41-2.03.62-3.86.62-5.5,0-2.03.2-4.06.61-6.12h23.31l-.61.62h0ZM465.43,63.19l-19.63-19.56c-5.31-9.37-12.68-16.51-22.08-21.4l-12.88-1.83h-245.91c-32.3.82-59.8,8.77-82.49,23.84-22.69,15.09-40.58,36.68-53.66,64.8l-1.23,2.45c-1.63,6.94-2.86,13.56-3.67,19.88-.83,6.32-1.23,12.74-1.23,19.25,0,24.86,7.56,41.17,22.69,48.91l22.69,22.01c7.76,7.74,18.8,11.62,33.11,11.62,3.27,0,6.95-.4,11.04-1.22,4.08-.81,8.58-1.63,13.49-2.45l-19.63,140.01c-33.94,2.04-50.9,22.21-50.9,60.52,2.45,8.55,8.79,17.33,19.02,26.29h1.84l23.92,23.84c.82.82,1.73,1.64,2.76,2.45,1.02.82,1.94,1.63,2.77,2.45h144.11c.81,0,1.84.1,3.06.3,1.23.21,2.24.3,3.07.3,14.72,0,25.75-4.28,33.11-12.84,7.35-8.55,11.44-21.18,12.26-37.9-1.23-8.15-4.5-14.87-9.81-20.18l-22.7-22.01c-.82-1.21-1.63-2.44-2.44-3.66-.83-1.22-1.85-2.45-3.07-3.67l10.43-75.81h23.92c2.45,6.94,7.15,13.45,14.11,19.56,1.63.82,2.86,1.22,3.68,1.22l27.6,27.51c4.49,1.63,8.68,2.66,12.57,3.05,3.88.41,7.67.62,11.35.62,3.27,0,6.84-.2,10.73-.62,3.88-.39,8.06-1.43,12.58-3.05.81-.81,1.73-1.83,2.76-3.05,1.01-1.22,1.93-2.23,2.76-3.06h.61l.62-1.22c.4,0,.81-.39,1.23-1.22,1.62-2.03,3.37-4.28,5.21-6.72,1.84-2.45,3.77-5.29,5.82-8.55l17.78-128.99c9.4-1.63,19.63-6.32,30.67-14.06.4-.81.91-1.73,1.53-2.75.61-1.01,1.12-1.93,1.53-2.75.81-.82,1.32-1.93,1.53-3.37.2-1.43.51-2.54.92-3.36v-1.22l12.88-100.27c-3.28-5.29-6.74-9.98-10.43-14.05v-.04ZM420.04,146.94c-.41.83-.91,1.64-1.53,2.45-.61.82-1.13,1.84-1.53,3.06-8.59,6.11-19.22,9.58-31.89,10.38l-19.02,137.56c-1.63,2.86-3.58,5.5-5.82,7.95-2.25,2.45-4.6,5.11-7.05,7.95-11.04,3.27-22.7,3.27-34.96,0-3.68-3.66-6.14-7.53-7.36-11.62.41-8.14-.61-18.74-3.06-31.79l-.61-2.45c-13.09-2.84-28.43-4.06-46-3.66h-25.14l-4.3,1.21-14.72,113.11c24.94,1.63,38.64,9.78,41.09,24.45-1.22,26.9-14.31,39.13-39.24,36.68H79.08c-4.51-4.06-7.78-8.96-9.82-14.67,0-30.16,14.5-44.83,43.54-44.01l5.52-3.67,1.85-7.95,37.4-263.5-1.23-7.95c-11.45-1.63-24.33.61-38.63,6.72,13.07,30.98,4.29,57.68-26.37,80.09-47.44,12.22-63.99-12.01-49.68-72.75,23.31-51.76,64.6-78.46,123.88-80.09h244.07l9.82,1.22c4.91,2.45,9.2,7.13,12.88,14.05l-12.27,97.21v.02ZM336.64,105.37l-3.68-1.22h-76.66c-1.63,4.07-2.76,8.55-3.37,13.45-.62,4.89-1.34,10.39-2.15,16.51l-7.97,55.63.61,5.5h39.25c7.76.82,14.5.41,20.23-1.22h7.36l5.52-1.22c8.17-10.59,13.69-23.22,16.56-37.91,8.99-8.55,20.02-12.83,33.11-12.83,0-12.63-2.67-23.44-7.97-32.41-5.31-2.85-12.26-4.28-20.85-4.28h0ZM318.86,147.56c-2.87,13.86-6.75,24.66-11.65,32.4h-6.14c-3.68,1.22-6.96,1.84-9.81,1.84l2.44-14.67c.41-1.63.62-3.06.62-4.29s.2-2.64.61-4.28c.41-2.03.62-3.86.62-5.5,0-2.03.2-4.06.61-6.12h23.31l-.61.62h0Z"/>
    <path class="cls-2" d="M419.44,35.68l-9.82-1.22h-244.07c-59.28,1.63-100.57,28.33-123.88,80.09-14.31,60.74,2.24,84.97,49.68,72.75,30.66-22.41,39.44-49.11,26.37-80.09,14.3-6.12,27.18-8.35,38.63-6.72l1.23,7.95-37.4,263.5-1.85,7.95-5.52,3.67c-29.04-.82-43.54,13.85-43.54,44.01,2.04,5.71,5.3,10.61,9.82,14.67h139.82c24.93,2.45,38.02-9.78,39.24-36.68-2.44-14.67-16.15-22.82-41.09-24.45l14.72-113.11,4.3-1.21h25.14c17.57-.4,32.9.82,46,3.66l.61,2.45c2.45,13.05,3.47,23.65,3.06,31.79,1.23,4.08,3.68,7.96,7.36,11.62,12.26,3.27,23.92,3.27,34.96,0,2.44-2.84,4.8-5.5,7.05-7.95,2.24-2.45,4.19-5.09,5.82-7.95l19.02-137.56c12.67-.81,23.3-4.28,31.89-10.38.41-1.22.92-2.24,1.53-3.06.62-.81,1.13-1.62,1.53-2.45l12.27-97.21c-3.68-6.93-7.97-11.61-12.88-14.05v-.02ZM332.35,154.89c-2.87,14.68-8.39,27.32-16.56,37.91l-5.52,1.22h-7.36c-5.73,1.64-12.48,2.04-20.23,1.22h-39.25l-.61-5.5,7.97-55.63c.81-6.12,1.53-11.62,2.15-16.51.61-4.89,1.73-9.37,3.37-13.45h76.66l3.68,1.22c8.59,0,15.54,1.43,20.85,4.28,5.3,8.97,7.97,19.78,7.97,32.41-13.09,0-24.13,4.28-33.11,12.83h0Z"/>
  </g>
</svg>